<svg width="161" height="37" viewBox="0 0 161 37" fill="none" xmlns="http://www.w3.org/2000/svg">
<path d="M22.4062 31.1025L16.9375 26.5854L6 17.5512V8.51704L16.9375 17.5512L22.4062 22.0683L16.9375 17.5512L22.4062 13.0342L27.875 17.5512L22.4062 22.0683L27.875 17.5512V26.5854L22.4062 31.1025ZM16.9376 26.5854L22.4062 22.0684L16.9376 26.5854ZM16.9376 8.51716H22.4062V13.0343L16.9375 17.5512L16.9376 8.51716ZM16.9376 8.51716L22.4062 4L27.875 8.51704L16.9376 8.51716Z" fill="white" stroke="white" stroke-width="2.5" stroke-linejoin="round"/>
<path d="M45.776 15.672C45.216 14.888 44.464 14.496 43.52 14.496C43.136 14.496 42.76 14.592 42.392 14.784C42.024 14.976 41.84 15.288 41.84 15.72C41.84 16.072 41.992 16.328 42.296 16.488C42.6 16.648 42.984 16.784 43.448 16.896C43.912 17.008 44.408 17.128 44.936 17.256C45.48 17.368 45.984 17.552 46.448 17.808C46.912 18.048 47.296 18.384 47.6 18.816C47.904 19.248 48.056 19.84 48.056 20.592C48.056 21.28 47.904 21.864 47.6 22.344C47.312 22.808 46.928 23.184 46.448 23.472C45.984 23.76 45.456 23.968 44.864 24.096C44.272 24.224 43.68 24.288 43.088 24.288C42.192 24.288 41.368 24.16 40.616 23.904C39.864 23.648 39.192 23.184 38.6 22.512L40.52 20.712C40.888 21.128 41.28 21.472 41.696 21.744C42.128 22 42.648 22.128 43.256 22.128C43.464 22.128 43.68 22.104 43.904 22.056C44.128 22.008 44.336 21.928 44.528 21.816C44.72 21.704 44.872 21.568 44.984 21.408C45.112 21.232 45.176 21.032 45.176 20.808C45.176 20.408 45.024 20.112 44.72 19.92C44.416 19.728 44.032 19.576 43.568 19.464C43.104 19.336 42.6 19.224 42.056 19.128C41.528 19.016 41.032 18.848 40.568 18.624C40.104 18.384 39.72 18.056 39.416 17.64C39.112 17.224 38.96 16.648 38.96 15.912C38.96 15.272 39.088 14.72 39.344 14.256C39.616 13.776 39.968 13.384 40.4 13.08C40.832 12.776 41.328 12.552 41.888 12.408C42.448 12.264 43.016 12.192 43.592 12.192C44.36 12.192 45.12 12.328 45.872 12.6C46.624 12.856 47.232 13.304 47.696 13.944L45.776 15.672ZM48.9521 14.928V12.48H51.3281V9.144H54.2081V12.48H57.3761V14.928H54.2081V19.968C54.2081 20.544 54.3121 21 54.5201 21.336C54.7441 21.672 55.1761 21.84 55.8161 21.84C56.0721 21.84 56.3521 21.816 56.6561 21.768C56.9601 21.704 57.2001 21.608 57.3761 21.48V23.904C57.0721 24.048 56.6961 24.144 56.2481 24.192C55.8161 24.256 55.4321 24.288 55.0961 24.288C54.3281 24.288 53.6961 24.2 53.2001 24.024C52.7201 23.864 52.3361 23.616 52.0481 23.28C51.7761 22.928 51.5841 22.496 51.4721 21.984C51.3761 21.472 51.3281 20.88 51.3281 20.208V14.928H48.9521ZM66.8242 22.416H66.7522C66.3362 23.072 65.8082 23.552 65.1682 23.856C64.5282 24.144 63.8242 24.288 63.0562 24.288C62.5282 24.288 62.0082 24.216 61.4962 24.072C61.0002 23.928 60.5522 23.712 60.1522 23.424C59.7682 23.136 59.4562 22.776 59.2162 22.344C58.9762 21.912 58.8562 21.408 58.8562 20.832C58.8562 20.208 58.9682 19.68 59.1922 19.248C59.4162 18.8 59.7122 18.432 60.0802 18.144C60.4642 17.84 60.9042 17.6 61.4002 17.424C61.8962 17.248 62.4082 17.12 62.9362 17.04C63.4802 16.944 64.0242 16.888 64.5682 16.872C65.1122 16.84 65.6242 16.824 66.1042 16.824H66.8242V16.512C66.8242 15.792 66.5762 15.256 66.0802 14.904C65.5842 14.536 64.9522 14.352 64.1842 14.352C63.5762 14.352 63.0082 14.464 62.4802 14.688C61.9522 14.896 61.4962 15.184 61.1122 15.552L59.6002 14.04C60.2402 13.384 60.9842 12.912 61.8322 12.624C62.6962 12.336 63.5842 12.192 64.4962 12.192C65.3122 12.192 66.0002 12.288 66.5602 12.48C67.1202 12.656 67.5842 12.888 67.9522 13.176C68.3202 13.464 68.6002 13.8 68.7922 14.184C69.0002 14.552 69.1442 14.928 69.2242 15.312C69.3202 15.696 69.3762 16.072 69.3922 16.44C69.4082 16.792 69.4162 17.104 69.4162 17.376V24H66.8242V22.416ZM66.6562 18.84H66.0562C65.6562 18.84 65.2082 18.856 64.7122 18.888C64.2162 18.92 63.7442 19 63.2962 19.128C62.8642 19.24 62.4962 19.416 62.1922 19.656C61.8882 19.88 61.7362 20.2 61.7362 20.616C61.7362 20.888 61.7922 21.12 61.9042 21.312C62.0322 21.488 62.1922 21.64 62.3842 21.768C62.5762 21.896 62.7922 21.992 63.0322 22.056C63.2722 22.104 63.5122 22.128 63.7522 22.128C64.7442 22.128 65.4722 21.896 65.9362 21.432C66.4162 20.952 66.6562 20.304 66.6562 19.488V18.84ZM80.3868 15.936C80.0508 15.584 79.6988 15.304 79.3308 15.096C78.9628 14.888 78.5868 14.784 78.2028 14.784C77.6748 14.784 77.2028 14.88 76.7868 15.072C76.3708 15.264 76.0108 15.52 75.7068 15.84C75.4188 16.16 75.1948 16.528 75.0348 16.944C74.8908 17.36 74.8188 17.792 74.8188 18.24C74.8188 18.688 74.8908 19.12 75.0348 19.536C75.1948 19.952 75.4188 20.32 75.7068 20.64C76.0108 20.96 76.3708 21.216 76.7868 21.408C77.2028 21.6 77.6748 21.696 78.2028 21.696C78.6508 21.696 79.0668 21.608 79.4508 21.432C79.8348 21.24 80.1628 20.968 80.4348 20.616L82.3548 22.68C82.0668 22.968 81.7308 23.216 81.3468 23.424C80.9788 23.632 80.6028 23.8 80.2188 23.928C79.8348 24.056 79.4668 24.144 79.1148 24.192C78.7628 24.256 78.4588 24.288 78.2028 24.288C77.3388 24.288 76.5228 24.144 75.7548 23.856C74.9868 23.568 74.3228 23.16 73.7628 22.632C73.2028 22.104 72.7548 21.472 72.4188 20.736C72.0988 19.984 71.9388 19.152 71.9388 18.24C71.9388 17.328 72.0988 16.504 72.4188 15.768C72.7548 15.016 73.2028 14.376 73.7628 13.848C74.3228 13.32 74.9868 12.912 75.7548 12.624C76.5228 12.336 77.3388 12.192 78.2028 12.192C78.9388 12.192 79.6748 12.336 80.4108 12.624C81.1628 12.896 81.8188 13.336 82.3788 13.944L80.3868 15.936ZM84.0929 5.856H86.9729V17.256L91.4129 12.48H95.1089L90.1649 17.712L95.4209 24H91.6049L87.0209 18.12H86.9729V24H84.0929V5.856ZM103.128 15.672C102.568 14.888 101.816 14.496 100.872 14.496C100.488 14.496 100.112 14.592 99.7436 14.784C99.3756 14.976 99.1916 15.288 99.1916 15.72C99.1916 16.072 99.3436 16.328 99.6476 16.488C99.9516 16.648 100.336 16.784 100.8 16.896C101.264 17.008 101.76 17.128 102.288 17.256C102.832 17.368 103.336 17.552 103.8 17.808C104.264 18.048 104.648 18.384 104.952 18.816C105.256 19.248 105.408 19.84 105.408 20.592C105.408 21.28 105.256 21.864 104.952 22.344C104.664 22.808 104.28 23.184 103.8 23.472C103.336 23.76 102.808 23.968 102.216 24.096C101.624 24.224 101.032 24.288 100.44 24.288C99.5436 24.288 98.7196 24.16 97.9676 23.904C97.2156 23.648 96.5436 23.184 95.9516 22.512L97.8716 20.712C98.2396 21.128 98.6316 21.472 99.0476 21.744C99.4796 22 99.9996 22.128 100.608 22.128C100.816 22.128 101.032 22.104 101.256 22.056C101.48 22.008 101.688 21.928 101.88 21.816C102.072 21.704 102.224 21.568 102.336 21.408C102.464 21.232 102.528 21.032 102.528 20.808C102.528 20.408 102.376 20.112 102.072 19.92C101.768 19.728 101.384 19.576 100.92 19.464C100.456 19.336 99.9516 19.224 99.4076 19.128C98.8796 19.016 98.3836 18.848 97.9196 18.624C97.4556 18.384 97.0716 18.056 96.7676 17.64C96.4636 17.224 96.3116 16.648 96.3116 15.912C96.3116 15.272 96.4396 14.72 96.6956 14.256C96.9676 13.776 97.3196 13.384 97.7516 13.08C98.1836 12.776 98.6796 12.552 99.2396 12.408C99.7996 12.264 100.368 12.192 100.944 12.192C101.712 12.192 102.472 12.328 103.224 12.6C103.976 12.856 104.584 13.304 105.048 13.944L103.128 15.672ZM106.088 12.48H109.208L111.704 20.544H111.752L114.08 12.48H117.2L119.696 20.544H119.744L122.144 12.48H125.048L121.136 24H118.28L115.544 16.128H115.496L113.072 24H110.096L106.088 12.48ZM133.949 22.416H133.877C133.461 23.072 132.933 23.552 132.293 23.856C131.653 24.144 130.949 24.288 130.181 24.288C129.653 24.288 129.133 24.216 128.621 24.072C128.125 23.928 127.677 23.712 127.277 23.424C126.893 23.136 126.581 22.776 126.341 22.344C126.101 21.912 125.981 21.408 125.981 20.832C125.981 20.208 126.093 19.68 126.317 19.248C126.541 18.8 126.837 18.432 127.205 18.144C127.589 17.84 128.029 17.6 128.525 17.424C129.021 17.248 129.533 17.12 130.061 17.04C130.605 16.944 131.149 16.888 131.693 16.872C132.237 16.84 132.749 16.824 133.229 16.824H133.949V16.512C133.949 15.792 133.701 15.256 133.205 14.904C132.709 14.536 132.077 14.352 131.309 14.352C130.701 14.352 130.133 14.464 129.605 14.688C129.077 14.896 128.621 15.184 128.237 15.552L126.725 14.04C127.365 13.384 128.109 12.912 128.957 12.624C129.821 12.336 130.709 12.192 131.621 12.192C132.437 12.192 133.125 12.288 133.685 12.48C134.245 12.656 134.709 12.888 135.077 13.176C135.445 13.464 135.725 13.8 135.917 14.184C136.125 14.552 136.269 14.928 136.349 15.312C136.445 15.696 136.501 16.072 136.517 16.44C136.533 16.792 136.541 17.104 136.541 17.376V24H133.949V22.416ZM133.781 18.84H133.181C132.781 18.84 132.333 18.856 131.837 18.888C131.341 18.92 130.869 19 130.421 19.128C129.989 19.24 129.621 19.416 129.317 19.656C129.013 19.88 128.861 20.2 128.861 20.616C128.861 20.888 128.917 21.12 129.029 21.312C129.157 21.488 129.317 21.64 129.509 21.768C129.701 21.896 129.917 21.992 130.157 22.056C130.397 22.104 130.637 22.128 130.877 22.128C131.869 22.128 132.597 21.896 133.061 21.432C133.541 20.952 133.781 20.304 133.781 19.488V18.84ZM139.64 12.48H142.376V14.328H142.424C142.696 13.752 143.112 13.256 143.672 12.84C144.232 12.408 144.992 12.192 145.952 12.192C146.72 12.192 147.368 12.32 147.896 12.576C148.44 12.832 148.88 13.168 149.216 13.584C149.552 14 149.792 14.48 149.936 15.024C150.08 15.568 150.152 16.136 150.152 16.728V24H147.272V18.168C147.272 17.848 147.256 17.496 147.224 17.112C147.192 16.712 147.104 16.344 146.96 16.008C146.832 15.656 146.624 15.368 146.336 15.144C146.048 14.904 145.656 14.784 145.16 14.784C144.68 14.784 144.272 14.864 143.936 15.024C143.616 15.184 143.344 15.4 143.12 15.672C142.912 15.944 142.76 16.256 142.664 16.608C142.568 16.96 142.52 17.328 142.52 17.712V24H139.64V12.48Z" fill="white"/>
</svg>
