<svg width="95" height="23" viewBox="0 0 95 23" fill="none" xmlns="http://www.w3.org/2000/svg">
<path d="M13 19L10 16.5L4 11.5V6.49998L10 11.5L13 14L10 11.5L13 9.00002L16 11.5L13 14L16 11.5V16.5L13 19ZM10 16.5L13 14L10 16.5ZM10 6.50004H13V9.00006L10 11.5L10 6.50004ZM10 6.50004L13 4L16 6.49998L10 6.50004Z" fill="#2C2A2A" stroke="#2C2A2A" stroke-width="1.8" stroke-linejoin="round"/>
<path d="M25.12 10.32C24.9493 10.1067 24.736 9.93067 24.48 9.792C24.2347 9.64267 23.9307 9.568 23.568 9.568C23.2267 9.568 22.928 9.64267 22.672 9.792C22.4267 9.93067 22.304 10.1387 22.304 10.416C22.304 10.64 22.3733 10.8213 22.512 10.96C22.6613 11.0987 22.832 11.2107 23.024 11.296C23.2267 11.3813 23.44 11.4453 23.664 11.488C23.888 11.5307 24.08 11.568 24.24 11.6C24.5493 11.6747 24.8373 11.7653 25.104 11.872C25.3813 11.9787 25.616 12.1173 25.808 12.288C26.0107 12.4587 26.1653 12.6667 26.272 12.912C26.3893 13.1573 26.448 13.456 26.448 13.808C26.448 14.2347 26.3573 14.6027 26.176 14.912C25.9947 15.2107 25.76 15.456 25.472 15.648C25.184 15.84 24.8533 15.9787 24.48 16.064C24.1173 16.1493 23.7493 16.192 23.376 16.192C22.7467 16.192 22.192 16.096 21.712 15.904C21.2427 15.712 20.8213 15.36 20.448 14.848L21.536 13.952C21.7707 14.1867 22.032 14.3947 22.32 14.576C22.608 14.7573 22.96 14.848 23.376 14.848C23.5573 14.848 23.7387 14.832 23.92 14.8C24.112 14.7573 24.2773 14.6987 24.416 14.624C24.5653 14.5387 24.6827 14.4373 24.768 14.32C24.864 14.192 24.912 14.048 24.912 13.888C24.912 13.6747 24.8427 13.4987 24.704 13.36C24.576 13.2213 24.416 13.1147 24.224 13.04C24.0427 12.9547 23.8453 12.8907 23.632 12.848C23.4293 12.7947 23.248 12.752 23.088 12.72C22.7787 12.6453 22.4853 12.56 22.208 12.464C21.9307 12.368 21.6853 12.24 21.472 12.08C21.2587 11.92 21.088 11.7173 20.96 11.472C20.832 11.2267 20.768 10.9227 20.768 10.56C20.768 10.1653 20.848 9.824 21.008 9.536C21.1787 9.23733 21.3973 8.992 21.664 8.8C21.9413 8.608 22.2507 8.464 22.592 8.368C22.944 8.272 23.296 8.224 23.648 8.224C24.16 8.224 24.6507 8.32 25.12 8.512C25.5893 8.704 25.9627 9.024 26.24 9.472L25.12 10.32ZM32.2614 9.664H30.1974V13.104C30.1974 13.3173 30.2027 13.5307 30.2134 13.744C30.224 13.9467 30.2614 14.1333 30.3254 14.304C30.4 14.464 30.5067 14.5973 30.6454 14.704C30.7947 14.8 31.008 14.848 31.2854 14.848C31.456 14.848 31.632 14.832 31.8134 14.8C31.9947 14.768 32.16 14.7093 32.3094 14.624V15.936C32.1387 16.032 31.9147 16.096 31.6374 16.128C31.3707 16.1707 31.1627 16.192 31.0134 16.192C30.4587 16.192 30.0267 16.1173 29.7174 15.968C29.4187 15.808 29.1947 15.6053 29.0454 15.36C28.9067 15.1147 28.8214 14.8427 28.7894 14.544C28.768 14.2347 28.7574 13.9253 28.7574 13.616V9.664H27.0934V8.416H28.7574V6.288H30.1974V8.416H32.2614V9.664ZM34.1513 9.344C34.5566 8.97067 35.0259 8.69333 35.5593 8.512C36.0926 8.32 36.6259 8.224 37.1593 8.224C37.7139 8.224 38.1886 8.29333 38.5833 8.432C38.9886 8.57067 39.3193 8.75733 39.5753 8.992C39.8313 9.22667 40.0179 9.49867 40.1353 9.808C40.2633 10.1067 40.3273 10.4213 40.3273 10.752V14.624C40.3273 14.8907 40.3326 15.136 40.3433 15.36C40.3539 15.584 40.3699 15.7973 40.3913 16H39.1113C39.0793 15.616 39.0633 15.232 39.0633 14.848H39.0313C38.7113 15.3387 38.3326 15.6853 37.8953 15.888C37.4579 16.0907 36.9513 16.192 36.3753 16.192C36.0233 16.192 35.6873 16.144 35.3673 16.048C35.0473 15.952 34.7646 15.808 34.5193 15.616C34.2846 15.424 34.0979 15.1893 33.9593 14.912C33.8206 14.624 33.7513 14.2933 33.7513 13.92C33.7513 13.4293 33.8579 13.0187 34.0713 12.688C34.2953 12.3573 34.5939 12.0907 34.9673 11.888C35.3513 11.6747 35.7939 11.5253 36.2953 11.44C36.8073 11.344 37.3513 11.296 37.9273 11.296H38.9833V10.976C38.9833 10.784 38.9459 10.592 38.8713 10.4C38.7966 10.208 38.6846 10.0373 38.5353 9.888C38.3859 9.728 38.1993 9.60533 37.9753 9.52C37.7513 9.424 37.4846 9.376 37.1753 9.376C36.8979 9.376 36.6526 9.40267 36.4393 9.456C36.2366 9.50933 36.0499 9.57867 35.8793 9.664C35.7086 9.73867 35.5539 9.82933 35.4153 9.936C35.2766 10.0427 35.1433 10.144 35.0153 10.24L34.1513 9.344ZM38.2153 12.352C37.8739 12.352 37.5219 12.3733 37.1593 12.416C36.8073 12.448 36.4819 12.5173 36.1833 12.624C35.8953 12.7307 35.6553 12.88 35.4633 13.072C35.2819 13.264 35.1913 13.5093 35.1913 13.808C35.1913 14.2453 35.3353 14.56 35.6233 14.752C35.9219 14.944 36.3219 15.04 36.8233 15.04C37.2179 15.04 37.5539 14.976 37.8313 14.848C38.1086 14.7093 38.3326 14.5333 38.5033 14.32C38.6739 14.1067 38.7966 13.872 38.8713 13.616C38.9459 13.3493 38.9833 13.088 38.9833 12.832V12.352H38.2153ZM47.8401 10.432C47.5735 10.1547 47.2908 9.94667 46.9921 9.808C46.7041 9.65867 46.3575 9.584 45.9521 9.584C45.5575 9.584 45.2108 9.65867 44.9121 9.808C44.6241 9.94667 44.3788 10.144 44.1761 10.4C43.9841 10.6453 43.8348 10.9333 43.7281 11.264C43.6321 11.584 43.5841 11.92 43.5841 12.272C43.5841 12.624 43.6428 12.96 43.7601 13.28C43.8775 13.5893 44.0428 13.8613 44.2561 14.096C44.4695 14.3307 44.7255 14.5173 45.0241 14.656C45.3228 14.784 45.6588 14.848 46.0321 14.848C46.4375 14.848 46.7841 14.7787 47.0721 14.64C47.3601 14.4907 47.6268 14.2773 47.8721 14L48.8961 15.024C48.5228 15.44 48.0855 15.7387 47.5841 15.92C47.0935 16.1013 46.5708 16.192 46.0161 16.192C45.4295 16.192 44.8908 16.096 44.4001 15.904C43.9201 15.712 43.5041 15.4453 43.1521 15.104C42.8001 14.752 42.5281 14.336 42.3361 13.856C42.1441 13.3653 42.0481 12.8267 42.0481 12.24C42.0481 11.6533 42.1441 11.1147 42.3361 10.624C42.5281 10.1333 42.7948 9.712 43.1361 9.36C43.4881 9.008 43.9041 8.736 44.3841 8.544C44.8748 8.34133 45.4188 8.24 46.0161 8.24C46.5708 8.24 47.0988 8.34133 47.6001 8.544C48.1121 8.736 48.5548 9.03467 48.9281 9.44L47.8401 10.432ZM50.1349 3.904H51.5749V11.712L54.8389 8.432H56.8389L53.3029 11.872L57.1429 16H55.0949L51.5749 12.064V16H50.1349V3.904ZM62.4638 10.32C62.2931 10.1067 62.0798 9.93067 61.8238 9.792C61.5784 9.64267 61.2744 9.568 60.9118 9.568C60.5704 9.568 60.2718 9.64267 60.0158 9.792C59.7704 9.93067 59.6478 10.1387 59.6478 10.416C59.6478 10.64 59.7171 10.8213 59.8558 10.96C60.0051 11.0987 60.1758 11.2107 60.3678 11.296C60.5704 11.3813 60.7838 11.4453 61.0078 11.488C61.2318 11.5307 61.4238 11.568 61.5838 11.6C61.8931 11.6747 62.1811 11.7653 62.4478 11.872C62.7251 11.9787 62.9598 12.1173 63.1518 12.288C63.3544 12.4587 63.5091 12.6667 63.6158 12.912C63.7331 13.1573 63.7918 13.456 63.7918 13.808C63.7918 14.2347 63.7011 14.6027 63.5198 14.912C63.3384 15.2107 63.1038 15.456 62.8158 15.648C62.5278 15.84 62.1971 15.9787 61.8238 16.064C61.4611 16.1493 61.0931 16.192 60.7198 16.192C60.0904 16.192 59.5358 16.096 59.0558 15.904C58.5864 15.712 58.1651 15.36 57.7918 14.848L58.8798 13.952C59.1144 14.1867 59.3758 14.3947 59.6638 14.576C59.9518 14.7573 60.3038 14.848 60.7198 14.848C60.9011 14.848 61.0824 14.832 61.2638 14.8C61.4558 14.7573 61.6211 14.6987 61.7598 14.624C61.9091 14.5387 62.0264 14.4373 62.1118 14.32C62.2078 14.192 62.2558 14.048 62.2558 13.888C62.2558 13.6747 62.1864 13.4987 62.0477 13.36C61.9198 13.2213 61.7598 13.1147 61.5677 13.04C61.3864 12.9547 61.1891 12.8907 60.9758 12.848C60.7731 12.7947 60.5918 12.752 60.4318 12.72C60.1224 12.6453 59.8291 12.56 59.5518 12.464C59.2744 12.368 59.0291 12.24 58.8158 12.08C58.6024 11.92 58.4318 11.7173 58.3038 11.472C58.1758 11.2267 58.1118 10.9227 58.1118 10.56C58.1118 10.1653 58.1918 9.824 58.3518 9.536C58.5224 9.23733 58.7411 8.992 59.0078 8.8C59.2851 8.608 59.5944 8.464 59.9358 8.368C60.2878 8.272 60.6398 8.224 60.9918 8.224C61.5038 8.224 61.9944 8.32 62.4638 8.512C62.9331 8.704 63.3064 9.024 63.5838 9.472L62.4638 10.32ZM64.6291 8.416H66.2451L67.9571 14.08H67.9891L69.7971 8.416H71.3171L73.2371 14.08H73.2691L74.9011 8.416H76.4211L73.9731 16H72.5171L70.5171 10.336H70.4851L68.6771 16H67.1251L64.6291 8.416ZM77.7138 9.344C78.1191 8.97067 78.5884 8.69333 79.1218 8.512C79.6551 8.32 80.1884 8.224 80.7218 8.224C81.2764 8.224 81.7511 8.29333 82.1458 8.432C82.5511 8.57067 82.8818 8.75733 83.1378 8.992C83.3938 9.22667 83.5804 9.49867 83.6978 9.808C83.8258 10.1067 83.8898 10.4213 83.8898 10.752V14.624C83.8898 14.8907 83.8951 15.136 83.9058 15.36C83.9164 15.584 83.9324 15.7973 83.9538 16H82.6738C82.6418 15.616 82.6258 15.232 82.6258 14.848H82.5938C82.2738 15.3387 81.8951 15.6853 81.4578 15.888C81.0204 16.0907 80.5138 16.192 79.9378 16.192C79.5858 16.192 79.2498 16.144 78.9298 16.048C78.6098 15.952 78.3271 15.808 78.0818 15.616C77.8471 15.424 77.6604 15.1893 77.5218 14.912C77.3831 14.624 77.3138 14.2933 77.3138 13.92C77.3138 13.4293 77.4204 13.0187 77.6338 12.688C77.8578 12.3573 78.1564 12.0907 78.5298 11.888C78.9138 11.6747 79.3564 11.5253 79.8578 11.44C80.3698 11.344 80.9138 11.296 81.4898 11.296H82.5458V10.976C82.5458 10.784 82.5084 10.592 82.4338 10.4C82.3591 10.208 82.2471 10.0373 82.0978 9.888C81.9484 9.728 81.7618 9.60533 81.5378 9.52C81.3138 9.424 81.0471 9.376 80.7378 9.376C80.4604 9.376 80.2151 9.40267 80.0018 9.456C79.7991 9.50933 79.6124 9.57867 79.4418 9.664C79.2711 9.73867 79.1164 9.82933 78.9778 9.936C78.8391 10.0427 78.7058 10.144 78.5778 10.24L77.7138 9.344ZM81.7778 12.352C81.4364 12.352 81.0844 12.3733 80.7218 12.416C80.3698 12.448 80.0444 12.5173 79.7458 12.624C79.4578 12.7307 79.2178 12.88 79.0258 13.072C78.8444 13.264 78.7538 13.5093 78.7538 13.808C78.7538 14.2453 78.8978 14.56 79.1858 14.752C79.4844 14.944 79.8844 15.04 80.3858 15.04C80.7804 15.04 81.1164 14.976 81.3938 14.848C81.6711 14.7093 81.8951 14.5333 82.0658 14.32C82.2364 14.1067 82.3591 13.872 82.4338 13.616C82.5084 13.3493 82.5458 13.088 82.5458 12.832V12.352H81.7778ZM85.9786 8.416H87.4186V9.584H87.4506C87.632 9.17867 87.9466 8.85333 88.3946 8.608C88.8426 8.352 89.36 8.224 89.9466 8.224C90.3093 8.224 90.656 8.28267 90.9866 8.4C91.328 8.50667 91.6213 8.67733 91.8666 8.912C92.1226 9.14667 92.3253 9.45067 92.4746 9.824C92.624 10.1867 92.6986 10.6187 92.6986 11.12V16H91.2586V11.52C91.2586 11.168 91.2106 10.8693 91.1146 10.624C91.0186 10.368 90.8906 10.1653 90.7306 10.016C90.5706 9.856 90.384 9.744 90.1706 9.68C89.968 9.60533 89.7546 9.568 89.5306 9.568C89.232 9.568 88.9546 9.616 88.6986 9.712C88.4426 9.808 88.2186 9.96267 88.0266 10.176C87.8346 10.3787 87.6853 10.64 87.5786 10.96C87.472 11.28 87.4186 11.6587 87.4186 12.096V16H85.9786V8.416Z" fill="#2C2A2A"/>
</svg>
